<?xml version="1.0" encoding="utf-8"?>
<!-- Generator: Adobe Illustrator 16.0.4, SVG Export Plug-In . SVG Version: 6.00 Build 0)  -->
<!DOCTYPE svg PUBLIC "-//W3C//DTD SVG 1.1//EN" "http://www.w3.org/Graphics/SVG/1.1/DTD/svg11.dtd">
<svg version="1.1" xmlns="http://www.w3.org/2000/svg" xmlns:xlink="http://www.w3.org/1999/xlink" x="0px" y="0px" width="320.3px"
	 height="218.3px" viewBox="0 0 320.3 218.3" style="enable-background:new 0 0 320.3 218.3;" xml:space="preserve">
<style type="text/css">
<![CDATA[
	.st0{fill:none;stroke:#0DB14B;stroke-width:0.855;stroke-miterlimit:10;stroke-dasharray:10.1451,10.1451;}
	.st1{fill:none;stroke:#0DB14B;stroke-width:0.855;stroke-miterlimit:10;stroke-dasharray:10.2278,10.2278;}
	.st2{fill:none;stroke:#0DB14B;stroke-width:0.855;stroke-miterlimit:10;}
	.st3{fill:none;stroke:#BABCBE;stroke-miterlimit:10;stroke-dasharray:12;}
	.st4{display:inline;}
	.st5{fill:#005EB8;}
	.st6{display:none;}
	.st7{fill:#A7A8AA;}
]]>
</style>
<g id="Layer_1">
	
		<text transform="matrix(1 -0.364 0 1 -621.4243 226.5112)" style="display:none;fill:#EC008C; font-family:'MyriadPro-Bold'; font-size:279.5772; letter-spacing:-1.9;">S</text>
</g>
<g id="Tagline">
	<g>
		<g>
			<g>
				<path class="st7" d="M152.4,176.3c-0.2-0.5-0.6-0.7-1-0.6c-65.5,30.3-119.7,34.3-128.8,9.5c-4.8-13,3.4-32.5,23-55.1
					c0.3-0.4,0.3-1,0.1-1.4c-0.3-0.4-0.8-0.5-1.1-0.1C11.3,161-4.1,188.6,2.3,204.5C7.4,217.1,25,221,53.2,215.7
					c27.2-5.1,62.3-18.6,98.8-38.1C152.4,177.4,152.5,176.8,152.4,176.3z"/>
			</g>
		</g>
		<path class="st7" d="M316.3,14.8c-7.1-15.2-30.1-18.7-64.8-9.7c-32.6,8.4-73.3,27.3-111.7,51.9c-0.4,0.2-0.5,0.8-0.4,1.3
			c0.2,0.5,0.6,0.7,1,0.5C182.5,39.2,282-2.4,296.1,34.2c2.4,6.1,4,16.8-8.7,38.2c-0.2,0.4-0.2,0.9,0.1,1.2c0.3,0.3,0.7,0.4,1,0.2
			C315.6,53.4,325,33.5,316.3,14.8z"/>
		<g>
			<path class="st5" d="M66.8,151.5c27-16.8,32.3-27.8,32.6-33.2c0.3-5.2-3.5-7-13.5-7.5C72,110,63.3,105.1,64,93
				c0.9-14.2,13.7-28.6,33.8-34.5c9.6-2.8,16.6-2.9,21.5-2.2l-5.3,16.5c-3.3-0.6-9.2-1.2-17.6,1.3c-8.3,2.4-12.6,7.3-12.9,11.7
				c-0.3,5.3,4.3,6.3,15.1,7.1c14.7,1,21.3,6.6,20.5,18.3c-0.9,14-11.3,26.3-34.4,38.6S34,171.8,32,172.6s-2.6-1-0.4-2.1
				C33.8,169.4,39.8,168.3,66.8,151.5z"/>
		</g>
		<g>
			<path class="st5" d="M152.7,114.5h-16.3v8.4h18.3v10h-30.5V87.4h29.5v9.9h-17.3v7.4h16.3V114.5z"/>
			<path class="st5" d="M158.3,132.9V87.4h14.4l7.2,14c2.5,4.5,5.1,10.6,7.2,15.9h0.2c-0.7-6-0.9-12.3-0.9-19.2V87.4h11.1v45.5
				h-12.8l-7.7-15.1c-2.6-4.9-5.5-10.9-7.7-16.5H169c0.3,6.1,0.4,13,0.4,20.4v11.2H158.3z"/>
			<path class="st5" d="M212.3,97.6h-11.6V87.4h35.6v10.2h-11.8v35.3h-12.2V97.6z"/>
			<path class="st5" d="M251.8,87.4v45.5h-12.2V87.4H251.8z"/>
			<path class="st5" d="M270,122.4l-2.6,10.5h-12.6L268,87.4h16.2l13.6,45.5h-13.2l-2.9-10.5H270z M280,113.3l-2.1-8.2
				c-0.7-2.6-1.6-6.3-2.2-9h-0.1c-0.7,2.7-1.3,6.5-2,9l-2,8.1H280z"/>
		</g>
	</g>
</g>
<g id="Logobox" class="st6">
	<g class="st4">
		<g>
			<polyline class="st2" points="1090.9,-159.7 1090.9,-164.8 1085.8,-164.8 			"/>
			<line class="st1" x1="1075.5" y1="-164.8" x2="-760.3" y2="-164.8"/>
			<polyline class="st2" points="-765.5,-164.8 -770.6,-164.8 -770.6,-159.7 			"/>
			<line class="st0" x1="-770.6" y1="-149.6" x2="-770.6" y2="372.9"/>
			<polyline class="st2" points="-770.6,378 -770.6,383.1 -765.5,383.1 			"/>
			<line class="st1" x1="-755.2" y1="383.1" x2="1080.7" y2="383.1"/>
			<polyline class="st2" points="1085.8,383.1 1090.9,383.1 1090.9,378 			"/>
			<line class="st0" x1="1090.9" y1="367.8" x2="1090.9" y2="-154.6"/>
		</g>
	</g>
</g>
<g id="A_space" class="st6">
	<g class="st4">
		<path class="st3" d="M1130,141.6l-6.6,27.1h-32.5L1125,51.5h41.8l35,117.3h-33.9l-7.5-27.1H1130z M1156,118.3l-5.4-21
			c-1.7-6.6-4-16.2-5.7-23.1h-0.3c-1.7,7-3.5,16.7-5.2,23.3l-5,20.9H1156z"/>
	</g>
</g>
<g id="Buffer_size" class="st6">
</g>
<g id="Buffer_zone">
</g>
</svg>
